<svg xmlns="http://www.w3.org/2000/svg" viewBox="0 0 512 512">
  <style>
    .st0{fill:none;stroke:#1a1a1a;stroke-width:10;stroke-linejoin:round;stroke-miterlimit:10}.st2{fill:#d8d8d8}.st6{fill:#1a1a1a}.st7{fill:#263238}.st14{fill:#ffd54f}.st15{fill:#95a2ac}.st53,.st68{fill:none;stroke:#fff;stroke-width:10;stroke-linejoin:round;stroke-miterlimit:10}.st68{opacity:.25;stroke:#1a1a1a}.st79{fill:#ffffd3}.st80{fill:#263238;stroke:#1a1a1a;stroke-width:10;stroke-miterlimit:10}
  </style>
  <switch>
    <g>
      <g id="Capa_3">
        <ellipse transform="rotate(-2.966 256.011 256.01) scale(1.00004)" cx="256" cy="256" rx="193.4" ry="193.4"
                 fill="#b2ebf2"/>
        <path class="st14"
              d="M380.5 399.6c-.9 0-1.9-.3-2.7-.8-2.3-1.5-3-4.6-1.4-6.9l12.3-18.7c1.5-2.3 4.6-3 6.9-1.4s3 4.6 1.4 6.9l-12.3 18.7c-1 1.4-2.6 2.2-4.2 2.2z"/>
        <path class="st14"
              d="M396 396.4c-.9 0-1.9-.3-2.7-.8l-18.7-12.3c-2.3-1.5-3-4.6-1.4-6.9 1.5-2.3 4.6-3 6.9-1.4l18.7 12.3c2.3 1.5 3 4.6 1.4 6.9-1 1.4-2.6 2.2-4.2 2.2zM167.8 133.5c-.5 0-.9-.1-1.4-.2-2.7-.8-4.2-3.5-3.4-6.2l6.2-21.6c.8-2.7 3.5-4.2 6.2-3.4 2.7.8 4.2 3.5 3.4 6.2l-6.2 21.6c-.6 2.2-2.6 3.6-4.8 3.6z"/>
        <path class="st14"
              d="M181.7 125.8c-.5 0-.9-.1-1.4-.2l-21.6-6.2c-2.7-.8-4.2-3.5-3.4-6.2.8-2.7 3.5-4.2 6.2-3.4l21.6 6.2c2.7.8 4.2 3.5 3.4 6.2-.6 2.2-2.6 3.6-4.8 3.6z"/>
        <path class="st15"
              d="M95.5 257.3c-2.3 0-4.4-1.6-4.9-4l-4.4-22c-.5-2.7 1.2-5.3 3.9-5.9 2.7-.5 5.3 1.2 5.9 3.9l4.4 22c.5 2.7-1.2 5.3-3.9 5.9-.4 0-.7.1-1 .1z"/>
        <path class="st15"
              d="M82.3 248.5c-2.3 0-4.4-1.6-4.9-4-.5-2.7 1.2-5.3 3.9-5.9l22-4.4c2.7-.5 5.3 1.2 5.9 3.9.5 2.7-1.2 5.3-3.9 5.9l-22 4.4c-.4 0-.7.1-1 .1z"/>
        <path class="st14"
              d="M389.7 207.3c-.5 0-1-.1-1.5-.2-2.6-.8-4.1-3.6-3.3-6.3l6.6-21.4c.8-2.6 3.6-4.1 6.3-3.3 2.6.8 4.1 3.6 3.3 6.3l-6.6 21.4c-.7 2.1-2.7 3.5-4.8 3.5z"/>
        <path class="st14"
              d="M403.7 199.9c-.5 0-1-.1-1.5-.2l-21.4-6.6c-2.6-.8-4.1-3.6-3.3-6.3.8-2.6 3.6-4.1 6.3-3.3l21.4 6.6c2.6.8 4.1 3.6 3.3 6.3-.7 2.1-2.7 3.5-4.8 3.5z"/>
        <path class="st15"
              d="M452.5 331.5c-7.4 0-13.4-6-13.4-13.4s6-13.4 13.4-13.4 13.4 6 13.4 13.4-6 13.4-13.4 13.4zm0-16.8c-1.9 0-3.4 1.5-3.4 3.4s1.5 3.4 3.4 3.4 3.4-1.5 3.4-3.4-1.6-3.4-3.4-3.4z"/>
        <path class="st14"
              d="M52.7 166.5c-7.4 0-13.4-6-13.4-13.4s6-13.4 13.4-13.4 13.4 6 13.4 13.4-6 13.4-13.4 13.4zm0-16.8c-1.9 0-3.4 1.5-3.4 3.4s1.5 3.4 3.4 3.4 3.4-1.5 3.4-3.4-1.5-3.4-3.4-3.4z"/>
        <g>
          <path class="st15"
                d="M315.5 104.3c-1 0-2.1-.3-3-1-2.2-1.6-2.7-4.8-1-7l13.4-18c1.6-2.2 4.8-2.7 7-1 2.2 1.6 2.7 4.8 1 7l-13.4 18c-1 1.3-2.5 2-4 2z"/>
          <path class="st15"
                d="M331.2 102c-1 0-2.1-.3-3-1l-18-13.4c-2.2-1.6-2.7-4.8-1-7 1.6-2.2 4.8-2.7 7-1l18 13.4c2.2 1.6 2.7 4.8 1 7-1 1.3-2.5 2-4 2z"/>
        </g>
        <path class="st15"
              d="M95.5 375.9c-7.4 0-13.4-6-13.4-13.4s6-13.4 13.4-13.4 13.4 6 13.4 13.4-6 13.4-13.4 13.4zm0-16.8c-1.9 0-3.4 1.5-3.4 3.4s1.5 3.4 3.4 3.4 3.4-1.5 3.4-3.4-1.5-3.4-3.4-3.4z"/>
        <g>
          <path class="st2"
                d="M379.8 304.2c0-8.7-2.4-16.8-6.5-23.7-.2-.3-.3-.5-.5-.8-.5-.8-1.1-1.6-1.6-2.4-1.4-2-3-3.9-4.8-5.7l-.1-.1c-3.9-3.9-8.5-7.1-13.6-9.4-5.8-2.7-12.3-4.2-19.2-4.2h-155c-6.8 0-13.3 1.5-19.2 4.2-16 7.3-27.2 23.4-27.2 42.2 0 3.2.3 6.3.9 9.3.2.8.3 1.5.5 2.2.4 1.5.8 2.9 1.4 4.4.8 2.1 1.7 4.2 2.8 6.2 1.4 2.6 3.1 5.1 5 7.4.5.6 1 1.1 1.5 1.7 4.2 4.6 9.4 8.4 15.1 11 5.8 2.7 12.3 4.2 19.2 4.2h155c6.8 0 13.3-1.5 19.2-4.2 3.8-1.7 7.4-4 10.6-6.7 10.1-8.6 16.5-21.3 16.5-35.6z"/>
          <path class="st6"
                d="M148.2 304.2c0-18.5 15.1-33.6 33.6-33.6h148.5c18.5 0 33.6 15.1 33.6 33.6s-15.1 33.6-33.6 33.6H181.8c-18.5-.1-33.6-15.1-33.6-33.6z"/>
          <path class="st2"
                d="M178.5 350.5c-6.8 0-13.3-1.5-19.2-4.2V472c0 2.5 2.1 4.6 4.6 4.6H348c2.5 0 4.6-2.1 4.6-4.6V346.4c-5.8 2.7-12.3 4.2-19.2 4.2H178.5z"/>
          <path
            d="M335.5 400.9c.9 2.9 1.4 6 1.4 9.3 0 3.3-.5 6.5-1.5 9.5-.4 1.3-.9 2.6-1.5 3.8-4.1 8.4-11.9 14.6-21.3 16.5-1.2.3-2.5.4-3.8.5-.7.1-1.5.1-2.2.1H205.1c-1.1 0-2.1-.1-3.2-.2-1.3-.1-2.5-.4-3.8-.6-5.6-1.3-10.6-4.1-14.5-8.1-2.4-2.4-4.4-5.1-5.8-8.2-.6-1.2-1.1-2.5-1.5-3.8-1-3-1.5-6.2-1.5-9.5 0-3.2.5-6.4 1.4-9.3.4-1.3.9-2.6 1.5-3.8 3.9-8.2 11.4-14.3 20.4-16.4 1.2-.3 2.5-.5 3.8-.6 1-.1 2.1-.2 3.2-.2H306.6c.7 0 1.5 0 2.2.1 1.3.1 2.5.3 3.8.5 6 1.2 11.3 4.1 15.5 8.3 2.4 2.4 4.4 5.3 5.9 8.4.6 1.1 1.1 2.4 1.5 3.7z"
            fill="#fff"/>
          <path class="st2"
                d="M261.8 65.7c-1.8.7-3.7 1.1-5.8 1.1-2.1 0-4-.4-5.8-1.1l-8.9 68.1h29.3l-8.8-68.1zM274.1 145.5c4.3 0 8.5.4 12.6 1 .5-1.1.8-2.3.8-3.5 0-4.5-3.1-8.1-10.2-8.1h-43.1c-7.1 0-9.7 3.6-9.7 8.1 0 1.3.2 2.5.7 3.5 4.1-.7 8.4-1 12.7-1h36.2zM333.5 257.9c6.8 0 13.3 1.5 19.2 4.2v-35c0-39.1-28.5-71.5-65.9-77.5-4.1-.7-8.3-1-12.6-1h-36.3c-4.3 0-8.6.4-12.7 1-37.3 6.1-65.8 38.4-65.8 77.5v35c5.8-2.7 12.3-4.2 19.2-4.2h154.9z"/>
          <path class="st7"
                d="M366.2 271.4l.1.1-.1-.1zM371.2 277.2c.6.8 1.1 1.6 1.6 2.4-.5-.8-1.1-1.6-1.6-2.4zM132.2 304.2zM373.3 280.5c4.1 6.9 6.5 15.1 6.5 23.7 0 14.3-6.5 27-16.6 35.5 10.1-8.5 16.6-21.3 16.6-35.5 0-8.7-2.4-16.8-6.5-23.7zM135 320.1c-.5-1.4-1-2.9-1.4-4.4.4 1.5.9 3 1.4 4.4z"/>
          <path
            d="M261.8 65.7c5.8-2.3 9.9-8 9.9-14.6 0-8.7-7-15.7-15.7-15.7s-15.7 7-15.7 15.7c0 6.6 4.1 12.3 9.9 14.6 1.8.7 3.7 1.1 5.8 1.1 2.1 0 4-.4 5.8-1.1z"
            fill="#f1c93e"/>
          <g opacity=".25">
            <path class="st53"
                  d="M352.6 231.1c0-39.1-28.5-71.5-65.9-77.5-4.1-.7-8.3-1-12.6-1h-36.3c-4.3 0-8.6.4-12.7 1-37.3 6.1-65.8 38.4-65.8 77.5M271.7 55.2c0-8.7-7-15.7-15.7-15.7s-15.7 7-15.7 15.7"/>
          </g>
          <path class="st7" d="M203.5 298.9h10.6v10.6h-10.6z"/>
          <path class="st0"
                d="M379.8 304.2c0-8.7-2.4-16.8-6.5-23.7-.2-.3-.3-.5-.5-.8-.5-.8-1.1-1.6-1.6-2.4-1.4-2-3-3.9-4.8-5.7l-.1-.1c-3.9-3.9-8.5-7.1-13.6-9.4-5.8-2.7-12.3-4.2-19.2-4.2h-155c-6.8 0-13.3 1.5-19.2 4.2-16 7.3-27.2 23.4-27.2 42.2 0 3.2.3 6.3.9 9.3.2.8.3 1.5.5 2.2.4 1.5.8 2.9 1.4 4.4.8 2.1 1.7 4.2 2.8 6.2 1.4 2.6 3.1 5.1 5 7.4.5.6 1 1.1 1.5 1.7 4.2 4.6 9.4 8.4 15.1 11 5.8 2.7 12.3 4.2 19.2 4.2h155c6.8 0 13.3-1.5 19.2-4.2 3.8-1.7 7.4-4 10.6-6.7 10.1-8.6 16.5-21.3 16.5-35.6zm-231.6 0c0-18.5 15.1-33.6 33.6-33.6h148.5c18.5 0 33.6 15.1 33.6 33.6s-15.1 33.6-33.6 33.6H181.8c-18.5-.1-33.6-15.1-33.6-33.6z"/>
          <path class="st7"
                d="M312.6 380.4c-1.2-.3-2.5-.4-3.8-.5v17.2h-18.7v-17.2h-3.8v17.2h-17.2v-17.2h-3.8v17.2h-18.8v-17.2h-3.8v17.2h-18.2v-17.2h-3.8v17.2h-18.8V380c-1.3.1-2.5.4-3.8.6V397H178c-.6 1.2-1.1 2.5-1.5 3.8h21.9v18.8h-21.8c.4 1.3.9 2.6 1.5 3.8h20.3v16.3c1.2.3 2.5.5 3.8.6v-16.9H221v17.1h3.8v-17.1H243v17.1h3.8v-17.1h18.8v17.1h3.8v-17.1h17.2v17.1h3.8v-17.1h18.7v17c1.3-.1 2.5-.3 3.8-.5v-16.5h21.3c.6-1.2 1.1-2.5 1.5-3.8h-22.8v-18.8h22.9c-.4-1.3-.9-2.6-1.5-3.8h-21.4v-16.6zm-91.7 39.2h-18.8v-18.8h18.8v18.8zm22 0h-18.2v-18.8h18.2v18.8zm22.5 0h-18.8v-18.8h18.8v18.8zm21 0h-17.2v-18.8h17.2v18.8zm22.5 0h-18.7v-18.8h18.7v18.8z"/>
          <path class="st79"
                d="M173.4 320.2c4.7 9.2 12.5 15.7 21.5 19h27.7c1.5-.6 3-1.2 4.4-1.9 19.5-10.1 27.1-34 17.1-53.5l-45.7-14.6h-12c-16.4 11.1-22.3 33-13 51zM283.8 335.9c1.4.7 2.8 1.3 4.2 1.9h26.5c8.6-3.2 16-9.5 20.6-18.2 8.9-17.3 3.3-38.2-12.4-48.9h-11.5l-43.8 14c-9.6 18.6-2.3 41.5 16.4 51.2z"/>
          <path class="st0"
                d="M176.9 319.5c4.5 8.8 12 15 20.6 18.2H224c1.4-.5 2.8-1.1 4.2-1.9 18.7-9.6 26-32.6 16.4-51.3l-43.8-14h-11.5c-15.7 10.8-21.3 31.7-12.4 49z"/>
          <path class="st80"
                d="M337 399.1H175.6M337 421.5H175.6M311.3 376.6v66.1M288.2 376.6v66.1M267.3 376.6v66.1M244.7 376.6v66.1M222.8 376.6v66.1M200.3 376.6v66.1"/>
          <path
            d="M335.5 400.9c.9 2.9 1.4 6 1.4 9.3 0 3.3-.5 6.5-1.5 9.5-.4 1.3-.9 2.6-1.5 3.8-4.1 8.4-11.9 14.6-21.3 16.5-1.2.3-2.5.4-3.8.5-.7.1-1.5.1-2.2.1H205.1c-1.1 0-2.1-.1-3.2-.2-1.3-.1-2.5-.4-3.8-.6-5.6-1.3-10.6-4.1-14.5-8.1-2.4-2.4-4.4-5.1-5.8-8.2-.6-1.2-1.1-2.5-1.5-3.8-1-3-1.5-6.2-1.5-9.5 0-3.2.5-6.4 1.4-9.3.4-1.3.9-2.6 1.5-3.8 3.9-8.2 11.4-14.3 20.4-16.4 1.2-.3 2.5-.5 3.8-.6 1-.1 2.1-.2 3.2-.2H306.6c.7 0 1.5 0 2.2.1 1.3.1 2.5.3 3.8.5 6 1.2 11.3 4.1 15.5 8.3 2.4 2.4 4.4 5.3 5.9 8.4.6 1.1 1.1 2.4 1.5 3.7z"
            fill="none" stroke="#1a1a1a" stroke-width="9.958" stroke-linejoin="round" stroke-miterlimit="10"/>
          <path class="st68"
                d="M178 403.2c3.9-8.2 11.4-14.3 20.4-16.4 1.2-.3 2.5-.5 3.8-.6 1-.1 2.1-.2 3.2-.2H306.9c.7 0 1.5 0 2.2.1 1.3.1 2.5.3 3.8.5 6 1.2 11.3 4.1 15.5 8.3 2.4 2.4 4.4 5.3 5.9 8.4"/>
          <path class="st0"
                d="M283.8 335.9c1.4.7 2.8 1.3 4.2 1.9h26.5c8.6-3.2 16-9.5 20.6-18.2 8.9-17.3 3.3-38.2-12.4-48.9h-11.5l-43.8 14c-9.6 18.6-2.3 41.5 16.4 51.2z"/>
          <path class="st6" d="M296.2 299.1h10.2v10.2h-10.2zM205.7 299.1h10.2v10.2h-10.2z"/>
          <path class="st68" d="M159.4 352.2c5.8 2.7 12.3 4.2 19.2 4.2h155c6.8 0 13.3-1.5 19.2-4.2"/>
          <path class="st0"
                d="M274.1 145.5c4.3 0 8.5.4 12.6 1 .5-1.1.8-2.3.8-3.5 0-4.5-3.1-8.1-10.2-8.1h-43.1c-7.1 0-9.7 3.6-9.7 8.1 0 1.3.2 2.5.7 3.5 4.1-.7 8.4-1 12.7-1h36.2zM333.5 257.9c6.8 0 13.3 1.5 19.2 4.2v-35c0-39.1-28.5-71.5-65.9-77.5-4.1-.7-8.3-1-12.6-1h-36.3c-4.3 0-8.6.4-12.7 1-37.3 6.1-65.8 38.4-65.8 77.5v35c5.8-2.7 12.3-4.2 19.2-4.2h154.9zM178.5 350.5c-6.8 0-13.3-1.5-19.2-4.2V472c0 2.5 2.1 4.6 4.6 4.6H348c2.5 0 4.6-2.1 4.6-4.6V346.4c-5.8 2.7-12.3 4.2-19.2 4.2H178.5zM261.8 65.7c-1.8.7-3.7 1.1-5.8 1.1-2.1 0-4-.4-5.8-1.1l-8.9 68.1h29.3l-8.8-68.1z"/>
          <path class="st0"
                d="M261.8 65.7c5.8-2.3 9.9-8 9.9-14.6 0-8.7-7-15.7-15.7-15.7s-15.7 7-15.7 15.7c0 6.6 4.1 12.3 9.9 14.6 1.8.7 3.7 1.1 5.8 1.1 2.1 0 4-.4 5.8-1.1z"/>
        </g>
      </g>
    </g>
  </switch>
</svg>
