<svg xmlns="http://www.w3.org/2000/svg" width="512" height="512"><path fill="currentColor" d="M437.012 74.99C390.686 28.662 326.693 0 256 0 146.256 0 52.655 69.064 16.251 166.094l59.938 22.477C103.491 115.798 173.692 64 256 64c53.02 0 101.01 21.5 135.754 56.247L320 192h192V0l-74.988 74.99zM256 448c-53.02 0-101.013-21.496-135.756-56.244L192 320H0v192l74.997-74.997C121.32 483.334 185.306 512 256 512c109.744 0 203.346-69.064 239.75-166.094l-59.938-22.477C408.51 396.202 338.309 448 256 448z"/></svg>
