<svg width="0" height="0" style="position:absolute"><symbol viewBox="0 0 48 48" id="edit" xmlns="http://www.w3.org/2000/svg"><path fill="currentColor" d="M44.929 14.391a.955.955 0 0 1-.183.276L16.84 42.572a.95.95 0 0 1-.475.434l-13.852 3.88c-.029.014-.062.016-.094.026l-.047.014c-.008.003-.017.001-.024.004a1.06 1.06 0 0 1-.286.045.926.926 0 0 1-.282-.041c-.021-.006-.04-.002-.061-.009-.008-.003-.013-.01-.021-.013a.94.94 0 0 1-.24-.141c-.039-.028-.08-.053-.113-.086s-.058-.074-.086-.113a.952.952 0 0 1-.141-.24c-.004-.008-.01-.013-.013-.021-.007-.02-.003-.04-.009-.061a.985.985 0 0 1-.041-.281c0-.1.02-.193.045-.287.004-.008.001-.016.004-.023l.014-.049c.011-.03.013-.063.026-.093l3.88-13.852c.082-.216.246-.364.434-.475L32.937 3.71c.04-.045.087-.083.128-.127l.299-.299c.015-.015.034-.02.05-.034C34.858 1.87 36.796 1 38.953 1A8.047 8.047 0 0 1 47 9.047c0 2.061-.795 3.922-2.071 5.344zM41.15 15.5l-3.619-3.619-23.64 23.641c.004.008.014.011.018.019l2.373 4.827L41.15 15.5zM3.559 44.473l2.785-.779-2.006-2.005-.779 2.784zm1.384-4.943l3.558 3.559 6.12-1.715s-2.586-5.372-2.59-5.374l-5.374-2.59-1.714 6.12zm7.547-5.406c.008.004.011.013.019.018L36.15 10.5l-3.619-3.619L7.663 31.749l4.827 2.375zM38.922 3c-1.782 0-3.372.776-4.489 1.994l-.007-.007-.514.513 8.619 8.619.527-.528-.006-.006c1.209-1.116 1.979-2.701 1.979-4.476A6.109 6.109 0 0 0 38.922 3z"/></symbol><symbol viewBox="0 0 512 512" id="logo" xmlns="http://www.w3.org/2000/svg"><style>.bst0{fill:none;stroke:#1a1a1a;stroke-width:10;stroke-linejoin:round;stroke-miterlimit:10}.bst2{fill:#d8d8d8}.bst6{fill:#1a1a1a}.bst7{fill:#263238}.bst14{fill:#ffd54f}.bst15{fill:#95a2ac}.bst53,.bst68{fill:none;stroke:#fff;stroke-width:10;stroke-linejoin:round;stroke-miterlimit:10}.bst68{opacity:.25;stroke:#1a1a1a}.bst79{fill:#ffffd3}.bst80{fill:#263238;stroke:#1a1a1a;stroke-width:10;stroke-miterlimit:10}</style><switch><g><g id="bCapa_3"><ellipse transform="rotate(-2.966 256.011 256.01) scale(1.00004)" cx="256" cy="256" rx="193.4" ry="193.4" fill="#b2ebf2"/><path class="bst14" d="M380.5 399.6c-.9 0-1.9-.3-2.7-.8-2.3-1.5-3-4.6-1.4-6.9l12.3-18.7c1.5-2.3 4.6-3 6.9-1.4s3 4.6 1.4 6.9l-12.3 18.7c-1 1.4-2.6 2.2-4.2 2.2z"/><path class="bst14" d="M396 396.4c-.9 0-1.9-.3-2.7-.8l-18.7-12.3c-2.3-1.5-3-4.6-1.4-6.9 1.5-2.3 4.6-3 6.9-1.4l18.7 12.3c2.3 1.5 3 4.6 1.4 6.9-1 1.4-2.6 2.2-4.2 2.2zM167.8 133.5c-.5 0-.9-.1-1.4-.2-2.7-.8-4.2-3.5-3.4-6.2l6.2-21.6c.8-2.7 3.5-4.2 6.2-3.4 2.7.8 4.2 3.5 3.4 6.2l-6.2 21.6c-.6 2.2-2.6 3.6-4.8 3.6z"/><path class="bst14" d="M181.7 125.8c-.5 0-.9-.1-1.4-.2l-21.6-6.2c-2.7-.8-4.2-3.5-3.4-6.2.8-2.7 3.5-4.2 6.2-3.4l21.6 6.2c2.7.8 4.2 3.5 3.4 6.2-.6 2.2-2.6 3.6-4.8 3.6z"/><path class="bst15" d="M95.5 257.3c-2.3 0-4.4-1.6-4.9-4l-4.4-22c-.5-2.7 1.2-5.3 3.9-5.9 2.7-.5 5.3 1.2 5.9 3.9l4.4 22c.5 2.7-1.2 5.3-3.9 5.9-.4 0-.7.1-1 .1z"/><path class="bst15" d="M82.3 248.5c-2.3 0-4.4-1.6-4.9-4-.5-2.7 1.2-5.3 3.9-5.9l22-4.4c2.7-.5 5.3 1.2 5.9 3.9.5 2.7-1.2 5.3-3.9 5.9l-22 4.4c-.4 0-.7.1-1 .1z"/><path class="bst14" d="M389.7 207.3c-.5 0-1-.1-1.5-.2-2.6-.8-4.1-3.6-3.3-6.3l6.6-21.4c.8-2.6 3.6-4.1 6.3-3.3 2.6.8 4.1 3.6 3.3 6.3l-6.6 21.4c-.7 2.1-2.7 3.5-4.8 3.5z"/><path class="bst14" d="M403.7 199.9c-.5 0-1-.1-1.5-.2l-21.4-6.6c-2.6-.8-4.1-3.6-3.3-6.3.8-2.6 3.6-4.1 6.3-3.3l21.4 6.6c2.6.8 4.1 3.6 3.3 6.3-.7 2.1-2.7 3.5-4.8 3.5z"/><path class="bst15" d="M452.5 331.5c-7.4 0-13.4-6-13.4-13.4s6-13.4 13.4-13.4 13.4 6 13.4 13.4-6 13.4-13.4 13.4zm0-16.8c-1.9 0-3.4 1.5-3.4 3.4s1.5 3.4 3.4 3.4 3.4-1.5 3.4-3.4-1.6-3.4-3.4-3.4z"/><path class="bst14" d="M52.7 166.5c-7.4 0-13.4-6-13.4-13.4s6-13.4 13.4-13.4 13.4 6 13.4 13.4-6 13.4-13.4 13.4zm0-16.8c-1.9 0-3.4 1.5-3.4 3.4s1.5 3.4 3.4 3.4 3.4-1.5 3.4-3.4-1.5-3.4-3.4-3.4z"/><path class="bst15" d="M315.5 104.3c-1 0-2.1-.3-3-1-2.2-1.6-2.7-4.8-1-7l13.4-18c1.6-2.2 4.8-2.7 7-1 2.2 1.6 2.7 4.8 1 7l-13.4 18c-1 1.3-2.5 2-4 2z"/><path class="bst15" d="M331.2 102c-1 0-2.1-.3-3-1l-18-13.4c-2.2-1.6-2.7-4.8-1-7 1.6-2.2 4.8-2.7 7-1l18 13.4c2.2 1.6 2.7 4.8 1 7-1 1.3-2.5 2-4 2zM95.5 375.9c-7.4 0-13.4-6-13.4-13.4s6-13.4 13.4-13.4 13.4 6 13.4 13.4-6 13.4-13.4 13.4zm0-16.8c-1.9 0-3.4 1.5-3.4 3.4s1.5 3.4 3.4 3.4 3.4-1.5 3.4-3.4-1.5-3.4-3.4-3.4z"/><g><path class="bst2" d="M379.8 304.2c0-8.7-2.4-16.8-6.5-23.7-.2-.3-.3-.5-.5-.8-.5-.8-1.1-1.6-1.6-2.4-1.4-2-3-3.9-4.8-5.7l-.1-.1c-3.9-3.9-8.5-7.1-13.6-9.4-5.8-2.7-12.3-4.2-19.2-4.2h-155c-6.8 0-13.3 1.5-19.2 4.2-16 7.3-27.2 23.4-27.2 42.2 0 3.2.3 6.3.9 9.3.2.8.3 1.5.5 2.2.4 1.5.8 2.9 1.4 4.4.8 2.1 1.7 4.2 2.8 6.2 1.4 2.6 3.1 5.1 5 7.4.5.6 1 1.1 1.5 1.7 4.2 4.6 9.4 8.4 15.1 11 5.8 2.7 12.3 4.2 19.2 4.2h155c6.8 0 13.3-1.5 19.2-4.2 3.8-1.7 7.4-4 10.6-6.7 10.1-8.6 16.5-21.3 16.5-35.6z"/><path class="bst6" d="M148.2 304.2c0-18.5 15.1-33.6 33.6-33.6h148.5c18.5 0 33.6 15.1 33.6 33.6s-15.1 33.6-33.6 33.6H181.8c-18.5-.1-33.6-15.1-33.6-33.6z"/><path class="bst2" d="M178.5 350.5c-6.8 0-13.3-1.5-19.2-4.2V472c0 2.5 2.1 4.6 4.6 4.6H348c2.5 0 4.6-2.1 4.6-4.6V346.4c-5.8 2.7-12.3 4.2-19.2 4.2H178.5z"/><path d="M335.5 400.9c.9 2.9 1.4 6 1.4 9.3 0 3.3-.5 6.5-1.5 9.5-.4 1.3-.9 2.6-1.5 3.8-4.1 8.4-11.9 14.6-21.3 16.5-1.2.3-2.5.4-3.8.5-.7.1-1.5.1-2.2.1H205.1c-1.1 0-2.1-.1-3.2-.2-1.3-.1-2.5-.4-3.8-.6-5.6-1.3-10.6-4.1-14.5-8.1-2.4-2.4-4.4-5.1-5.8-8.2-.6-1.2-1.1-2.5-1.5-3.8-1-3-1.5-6.2-1.5-9.5 0-3.2.5-6.4 1.4-9.3.4-1.3.9-2.6 1.5-3.8 3.9-8.2 11.4-14.3 20.4-16.4 1.2-.3 2.5-.5 3.8-.6 1-.1 2.1-.2 3.2-.2h101.5c.7 0 1.5 0 2.2.1 1.3.1 2.5.3 3.8.5 6 1.2 11.3 4.1 15.5 8.3 2.4 2.4 4.4 5.3 5.9 8.4.6 1.1 1.1 2.4 1.5 3.7z" fill="#fff"/><path class="bst2" d="M261.8 65.7c-1.8.7-3.7 1.1-5.8 1.1-2.1 0-4-.4-5.8-1.1l-8.9 68.1h29.3l-8.8-68.1zm12.3 79.8c4.3 0 8.5.4 12.6 1 .5-1.1.8-2.3.8-3.5 0-4.5-3.1-8.1-10.2-8.1h-43.1c-7.1 0-9.7 3.6-9.7 8.1 0 1.3.2 2.5.7 3.5 4.1-.7 8.4-1 12.7-1h36.2zm59.4 112.4c6.8 0 13.3 1.5 19.2 4.2v-35c0-39.1-28.5-71.5-65.9-77.5-4.1-.7-8.3-1-12.6-1h-36.3c-4.3 0-8.6.4-12.7 1-37.3 6.1-65.8 38.4-65.8 77.5v35c5.8-2.7 12.3-4.2 19.2-4.2h154.9z"/><path class="bst7" d="M366.2 271.4l.1.1-.1-.1zm5 5.8c.6.8 1.1 1.6 1.6 2.4-.5-.8-1.1-1.6-1.6-2.4zm-239 27zm241.1-23.7c4.1 6.9 6.5 15.1 6.5 23.7 0 14.3-6.5 27-16.6 35.5 10.1-8.5 16.6-21.3 16.6-35.5 0-8.7-2.4-16.8-6.5-23.7zM135 320.1c-.5-1.4-1-2.9-1.4-4.4.4 1.5.9 3 1.4 4.4z"/><path d="M261.8 65.7c5.8-2.3 9.9-8 9.9-14.6 0-8.7-7-15.7-15.7-15.7s-15.7 7-15.7 15.7c0 6.6 4.1 12.3 9.9 14.6 1.8.7 3.7 1.1 5.8 1.1 2.1 0 4-.4 5.8-1.1z" fill="#f1c93e"/><path class="bst53" d="M352.6 231.1c0-39.1-28.5-71.5-65.9-77.5-4.1-.7-8.3-1-12.6-1h-36.3c-4.3 0-8.6.4-12.7 1-37.3 6.1-65.8 38.4-65.8 77.5M271.7 55.2c0-8.7-7-15.7-15.7-15.7s-15.7 7-15.7 15.7" opacity=".25"/><path class="bst7" d="M203.5 298.9h10.6v10.6h-10.6z"/><path class="bst0" d="M379.8 304.2c0-8.7-2.4-16.8-6.5-23.7-.2-.3-.3-.5-.5-.8-.5-.8-1.1-1.6-1.6-2.4-1.4-2-3-3.9-4.8-5.7l-.1-.1c-3.9-3.9-8.5-7.1-13.6-9.4-5.8-2.7-12.3-4.2-19.2-4.2h-155c-6.8 0-13.3 1.5-19.2 4.2-16 7.3-27.2 23.4-27.2 42.2 0 3.2.3 6.3.9 9.3.2.8.3 1.5.5 2.2.4 1.5.8 2.9 1.4 4.4.8 2.1 1.7 4.2 2.8 6.2 1.4 2.6 3.1 5.1 5 7.4.5.6 1 1.1 1.5 1.7 4.2 4.6 9.4 8.4 15.1 11 5.8 2.7 12.3 4.2 19.2 4.2h155c6.8 0 13.3-1.5 19.2-4.2 3.8-1.7 7.4-4 10.6-6.7 10.1-8.6 16.5-21.3 16.5-35.6zm-231.6 0c0-18.5 15.1-33.6 33.6-33.6h148.5c18.5 0 33.6 15.1 33.6 33.6s-15.1 33.6-33.6 33.6H181.8c-18.5-.1-33.6-15.1-33.6-33.6z"/><path class="bst7" d="M312.6 380.4c-1.2-.3-2.5-.4-3.8-.5v17.2h-18.7v-17.2h-3.8v17.2h-17.2v-17.2h-3.8v17.2h-18.8v-17.2h-3.8v17.2h-18.2v-17.2h-3.8v17.2h-18.8V380c-1.3.1-2.5.4-3.8.6V397H178c-.6 1.2-1.1 2.5-1.5 3.8h21.9v18.8h-21.8c.4 1.3.9 2.6 1.5 3.8h20.3v16.3c1.2.3 2.5.5 3.8.6v-16.9H221v17.1h3.8v-17.1H243v17.1h3.8v-17.1h18.8v17.1h3.8v-17.1h17.2v17.1h3.8v-17.1h18.7v17c1.3-.1 2.5-.3 3.8-.5v-16.5h21.3c.6-1.2 1.1-2.5 1.5-3.8h-22.8v-18.8h22.9c-.4-1.3-.9-2.6-1.5-3.8h-21.4v-16.6zm-91.7 39.2h-18.8v-18.8h18.8v18.8zm22 0h-18.2v-18.8h18.2v18.8zm22.5 0h-18.8v-18.8h18.8v18.8zm21 0h-17.2v-18.8h17.2v18.8zm22.5 0h-18.7v-18.8h18.7v18.8z"/><path class="bst79" d="M173.4 320.2c4.7 9.2 12.5 15.7 21.5 19h27.7c1.5-.6 3-1.2 4.4-1.9 19.5-10.1 27.1-34 17.1-53.5l-45.7-14.6h-12c-16.4 11.1-22.3 33-13 51zm110.4 15.7c1.4.7 2.8 1.3 4.2 1.9h26.5c8.6-3.2 16-9.5 20.6-18.2 8.9-17.3 3.3-38.2-12.4-48.9h-11.5l-43.8 14c-9.6 18.6-2.3 41.5 16.4 51.2z"/><path class="bst0" d="M176.9 319.5c4.5 8.8 12 15 20.6 18.2H224c1.4-.5 2.8-1.1 4.2-1.9 18.7-9.6 26-32.6 16.4-51.3l-43.8-14h-11.5c-15.7 10.8-21.3 31.7-12.4 49z"/><path class="bst80" d="M337 399.1H175.6M337 421.5H175.6m135.7-44.9v66.1m-23.1-66.1v66.1m-20.9-66.1v66.1m-22.6-66.1v66.1m-21.9-66.1v66.1m-22.5-66.1v66.1"/><path d="M335.5 400.9c.9 2.9 1.4 6 1.4 9.3 0 3.3-.5 6.5-1.5 9.5-.4 1.3-.9 2.6-1.5 3.8-4.1 8.4-11.9 14.6-21.3 16.5-1.2.3-2.5.4-3.8.5-.7.1-1.5.1-2.2.1H205.1c-1.1 0-2.1-.1-3.2-.2-1.3-.1-2.5-.4-3.8-.6-5.6-1.3-10.6-4.1-14.5-8.1-2.4-2.4-4.4-5.1-5.8-8.2-.6-1.2-1.1-2.5-1.5-3.8-1-3-1.5-6.2-1.5-9.5 0-3.2.5-6.4 1.4-9.3.4-1.3.9-2.6 1.5-3.8 3.9-8.2 11.4-14.3 20.4-16.4 1.2-.3 2.5-.5 3.8-.6 1-.1 2.1-.2 3.2-.2h101.5c.7 0 1.5 0 2.2.1 1.3.1 2.5.3 3.8.5 6 1.2 11.3 4.1 15.5 8.3 2.4 2.4 4.4 5.3 5.9 8.4.6 1.1 1.1 2.4 1.5 3.7z" fill="none" stroke="#1a1a1a" stroke-width="9.958" stroke-linejoin="round" stroke-miterlimit="10"/><path class="bst68" d="M178 403.2c3.9-8.2 11.4-14.3 20.4-16.4 1.2-.3 2.5-.5 3.8-.6 1-.1 2.1-.2 3.2-.2h101.5c.7 0 1.5 0 2.2.1 1.3.1 2.5.3 3.8.5 6 1.2 11.3 4.1 15.5 8.3 2.4 2.4 4.4 5.3 5.9 8.4"/><path class="bst0" d="M283.8 335.9c1.4.7 2.8 1.3 4.2 1.9h26.5c8.6-3.2 16-9.5 20.6-18.2 8.9-17.3 3.3-38.2-12.4-48.9h-11.5l-43.8 14c-9.6 18.6-2.3 41.5 16.4 51.2z"/><path class="bst6" d="M296.2 299.1h10.2v10.2h-10.2zm-90.5 0h10.2v10.2h-10.2z"/><path class="bst68" d="M159.4 352.2c5.8 2.7 12.3 4.2 19.2 4.2h155c6.8 0 13.3-1.5 19.2-4.2"/><path class="bst0" d="M274.1 145.5c4.3 0 8.5.4 12.6 1 .5-1.1.8-2.3.8-3.5 0-4.5-3.1-8.1-10.2-8.1h-43.1c-7.1 0-9.7 3.6-9.7 8.1 0 1.3.2 2.5.7 3.5 4.1-.7 8.4-1 12.7-1h36.2zm59.4 112.4c6.8 0 13.3 1.5 19.2 4.2v-35c0-39.1-28.5-71.5-65.9-77.5-4.1-.7-8.3-1-12.6-1h-36.3c-4.3 0-8.6.4-12.7 1-37.3 6.1-65.8 38.4-65.8 77.5v35c5.8-2.7 12.3-4.2 19.2-4.2h154.9zm-155 92.6c-6.8 0-13.3-1.5-19.2-4.2V472c0 2.5 2.1 4.6 4.6 4.6H348c2.5 0 4.6-2.1 4.6-4.6V346.4c-5.8 2.7-12.3 4.2-19.2 4.2H178.5zm83.3-284.8c-1.8.7-3.7 1.1-5.8 1.1-2.1 0-4-.4-5.8-1.1l-8.9 68.1h29.3l-8.8-68.1z"/><path class="bst0" d="M261.8 65.7c5.8-2.3 9.9-8 9.9-14.6 0-8.7-7-15.7-15.7-15.7s-15.7 7-15.7 15.7c0 6.6 4.1 12.3 9.9 14.6 1.8.7 3.7 1.1 5.8 1.1 2.1 0 4-.4 5.8-1.1z"/></g></g></g></switch></symbol><symbol viewBox="0 0 512 512" id="refresh" xmlns="http://www.w3.org/2000/svg"><path fill="currentColor" d="M437.012 74.99C390.686 28.662 326.693 0 256 0 146.256 0 52.655 69.064 16.251 166.094l59.938 22.477C103.491 115.798 173.692 64 256 64c53.02 0 101.01 21.5 135.754 56.247L320 192h192V0l-74.988 74.99zM256 448c-53.02 0-101.013-21.496-135.756-56.244L192 320H0v192l74.997-74.997C121.32 483.334 185.306 512 256 512c109.744 0 203.346-69.064 239.75-166.094l-59.938-22.477C408.51 396.202 338.309 448 256 448z"/></symbol><symbol viewBox="0 0 250.313 250.313" id="search" xmlns="http://www.w3.org/2000/svg"><path fill="currentColor" d="M244.186 214.604l-54.379-54.378c-.289-.289-.628-.491-.93-.76 10.7-16.231 16.945-35.66 16.945-56.554C205.822 46.075 159.747 0 102.911 0S0 46.075 0 102.911c0 56.835 46.074 102.911 102.91 102.911 20.895 0 40.323-6.245 56.554-16.945.269.301.47.64.759.929l54.38 54.38c8.169 8.168 21.413 8.168 29.583 0 8.168-8.169 8.168-21.413 0-29.582zm-141.275-44.458c-37.134 0-67.236-30.102-67.236-67.235 0-37.134 30.103-67.236 67.236-67.236 37.132 0 67.235 30.103 67.235 67.236s-30.103 67.235-67.235 67.235z" fill-rule="evenodd" clip-rule="evenodd"/></symbol><symbol viewBox="0 0 32 32" id="trash" xmlns="http://www.w3.org/2000/svg"><g fill="currentColor" clip-rule="evenodd"><path d="M29.98 6.819A2.99 2.99 0 0 0 27 4.003h-3V3.001a3 3 0 0 0-3-3H11a3 3 0 0 0-3 3v1.001H5a2.99 2.99 0 0 0-2.981 2.816H2v2.183a2 2 0 0 0 2 2v17a4 4 0 0 0 4 4h16a4 4 0 0 0 4-4v-17a2 2 0 0 0 2-2V6.819h-.02zM10 3.002a1 1 0 0 1 1-1h10a1 1 0 0 1 1 1v1H10v-1zm16 25c0 1.102-.898 2-2 2H8c-1.103 0-2-.898-2-2v-17h20v17zm2-20.001v1H4V7.002a1 1 0 0 1 1-1h22a1 1 0 0 1 1 1v.999z"/><path d="M9 28.006h2a1 1 0 0 0 1-1v-13a1 1 0 0 0-1-1H9a1 1 0 0 0-1 1v13a1 1 0 0 0 1 1zm0-14.001h2v13H9v-13zM15 28.006h2a1 1 0 0 0 1-1v-13a1 1 0 0 0-1-1h-2a1 1 0 0 0-1 1v13a1 1 0 0 0 1 1zm0-14.001h2v13h-2v-13zM21 28.006h2a1 1 0 0 0 1-1v-13a1 1 0 0 0-1-1h-2a1 1 0 0 0-1 1v13a1 1 0 0 0 1 1zm0-14.001h2v13h-2v-13z"/></g></symbol></svg>